<?xml version="1.0" encoding="UTF-8"?>
<svg id="Camada_1" xmlns="http://www.w3.org/2000/svg" xmlns:xlink="http://www.w3.org/1999/xlink" version="1.1" viewBox="0 0 600 250">
  <!-- Generator: Adobe Illustrator 30.3.0, SVG Export Plug-In . SVG Version: 2.1.3 Build 182)  -->
  <defs>
    <style>
      .st0 {
        fill: url(#Gradiente_sem_nome_13);
      }

      .st0, .st1, .st2, .st3, .st4, .st5, .st6, .st7, .st8, .st9, .st10, .st11, .st12, .st13, .st14, .st15, .st16, .st17 {
        fill-rule: evenodd;
      }

      .st1 {
        fill: url(#Gradiente_sem_nome_12);
      }

      .st2 {
        fill: url(#Gradiente_sem_nome_17);
      }

      .st3 {
        fill: url(#Gradiente_sem_nome_11);
      }

      .st4 {
        fill: url(#Gradiente_sem_nome_10);
      }

      .st5 {
        fill: url(#Gradiente_sem_nome_16);
      }

      .st6 {
        fill: url(#Gradiente_sem_nome_15);
      }

      .st7 {
        fill: url(#Gradiente_sem_nome_18);
      }

      .st8 {
        fill: url(#Gradiente_sem_nome_14);
      }

      .st18 {
        fill: #1d1d1b;
      }

      .st19 {
        isolation: isolate;
      }

      .st9 {
        fill: url(#Gradiente_sem_nome_9);
      }

      .st10 {
        fill: url(#Gradiente_sem_nome_3);
      }

      .st11 {
        fill: url(#Gradiente_sem_nome_7);
      }

      .st12 {
        fill: url(#Gradiente_sem_nome_5);
      }

      .st13 {
        fill: url(#Gradiente_sem_nome_8);
      }

      .st14 {
        fill: url(#Gradiente_sem_nome_6);
      }

      .st15 {
        fill: url(#Gradiente_sem_nome_2);
      }

      .st16 {
        fill: url(#Gradiente_sem_nome_4);
      }

      .st17 {
        fill: url(#Gradiente_sem_nome);
      }
    </style>
    <radialGradient id="Gradiente_sem_nome" data-name="Gradiente sem nome" cx="70.9" cy="124.72" fx="70.9" fy="124.72" r="69.61" gradientTransform="translate(0 250) scale(1 -1)" gradientUnits="userSpaceOnUse">
      <stop offset="0" stop-color="#fff"/>
      <stop offset=".28" stop-color="#e8e108"/>
      <stop offset=".8" stop-color="#339238"/>
      <stop offset="1" stop-color="#192111"/>
    </radialGradient>
    <radialGradient id="Gradiente_sem_nome_2" data-name="Gradiente sem nome 2" cx="33.7" cy="117.45" fx="33.7" fy="117.45" r="50.62" gradientTransform="translate(0 250) scale(1 -1)" gradientUnits="userSpaceOnUse">
      <stop offset="0" stop-color="#fff"/>
      <stop offset=".28" stop-color="#e8e108"/>
      <stop offset=".8" stop-color="#339238"/>
      <stop offset="1" stop-color="#192111"/>
    </radialGradient>
    <radialGradient id="Gradiente_sem_nome_3" data-name="Gradiente sem nome 3" cx="37.14" cy="124.14" fx="37.14" fy="124.14" r="32.42" gradientTransform="translate(0 250) scale(1 -1)" gradientUnits="userSpaceOnUse">
      <stop offset="0" stop-color="#fff"/>
      <stop offset=".33" stop-color="#fff"/>
      <stop offset=".66" stop-color="#fff" stop-opacity="0"/>
      <stop offset="1" stop-color="#fff" stop-opacity="0"/>
    </radialGradient>
    <radialGradient id="Gradiente_sem_nome_4" data-name="Gradiente sem nome 4" cx="41.69" cy="90.53" fx="41.69" fy="90.53" r="40.69" gradientTransform="translate(0 250) scale(1 -1)" gradientUnits="userSpaceOnUse">
      <stop offset="0" stop-color="#fff"/>
      <stop offset=".28" stop-color="#e8e108"/>
      <stop offset=".8" stop-color="#339238"/>
      <stop offset="1" stop-color="#192111"/>
    </radialGradient>
    <radialGradient id="Gradiente_sem_nome_5" data-name="Gradiente sem nome 5" cx="46.19" cy="94.34" fx="46.19" fy="94.34" r="30.86" gradientTransform="translate(0 250) scale(1 -1)" gradientUnits="userSpaceOnUse">
      <stop offset="0" stop-color="#fff"/>
      <stop offset=".33" stop-color="#fff"/>
      <stop offset=".66" stop-color="#fff" stop-opacity="0"/>
      <stop offset="1" stop-color="#fff" stop-opacity="0"/>
    </radialGradient>
    <radialGradient id="Gradiente_sem_nome_6" data-name="Gradiente sem nome 6" cx="20.39" cy="107.61" fx="20.39" fy="107.61" r="31.77" gradientTransform="translate(0 250) scale(1 -1)" gradientUnits="userSpaceOnUse">
      <stop offset="0" stop-color="#fff"/>
      <stop offset=".28" stop-color="#e8e108"/>
      <stop offset=".8" stop-color="#339238"/>
      <stop offset="1" stop-color="#192111"/>
    </radialGradient>
    <radialGradient id="Gradiente_sem_nome_7" data-name="Gradiente sem nome 7" cx="22.87" cy="107.03" fx="22.87" fy="107.03" r="23.54" gradientTransform="translate(0 250) scale(1 -1)" gradientUnits="userSpaceOnUse">
      <stop offset="0" stop-color="#fff"/>
      <stop offset=".33" stop-color="#fff"/>
      <stop offset=".66" stop-color="#fff" stop-opacity="0"/>
      <stop offset="1" stop-color="#fff" stop-opacity="0"/>
    </radialGradient>
    <radialGradient id="Gradiente_sem_nome_8" data-name="Gradiente sem nome 8" cx="43.33" cy="125.22" fx="43.33" fy="125.22" r="61.99" gradientTransform="translate(0 250) scale(1 -1)" gradientUnits="userSpaceOnUse">
      <stop offset="0" stop-color="#fff"/>
      <stop offset=".28" stop-color="#e8e108"/>
      <stop offset=".8" stop-color="#339238"/>
      <stop offset="1" stop-color="#192111"/>
    </radialGradient>
    <radialGradient id="Gradiente_sem_nome_9" data-name="Gradiente sem nome 9" cx="47.92" cy="131.9" fx="47.92" fy="131.9" r="48.61" gradientTransform="translate(0 250) scale(1 -1)" gradientUnits="userSpaceOnUse">
      <stop offset="0" stop-color="#fff"/>
      <stop offset=".33" stop-color="#fff"/>
      <stop offset=".66" stop-color="#fff" stop-opacity="0"/>
      <stop offset="1" stop-color="#fff" stop-opacity="0"/>
    </radialGradient>
    <radialGradient id="Gradiente_sem_nome_10" data-name="Gradiente sem nome 10" cx="1281.63" cy="832.07" fx="1281.63" fy="832.07" r="69.61" gradientTransform="translate(1344.88 -707.34) rotate(-180) scale(1 -1)" gradientUnits="userSpaceOnUse">
      <stop offset="0" stop-color="#fff"/>
      <stop offset=".28" stop-color="#e8e108"/>
      <stop offset=".8" stop-color="#339238"/>
      <stop offset="1" stop-color="#192111"/>
    </radialGradient>
    <radialGradient id="Gradiente_sem_nome_11" data-name="Gradiente sem nome 11" cx="1244.43" cy="824.79" fx="1244.43" fy="824.79" r="50.62" gradientTransform="translate(1344.88 -707.34) rotate(-180) scale(1 -1)" gradientUnits="userSpaceOnUse">
      <stop offset="0" stop-color="#fff"/>
      <stop offset=".28" stop-color="#e8e108"/>
      <stop offset=".8" stop-color="#339238"/>
      <stop offset="1" stop-color="#192111"/>
    </radialGradient>
    <radialGradient id="Gradiente_sem_nome_12" data-name="Gradiente sem nome 12" cx="1247.87" cy="831.48" fx="1247.87" fy="831.48" r="32.42" gradientTransform="translate(1344.88 -707.34) rotate(-180) scale(1 -1)" gradientUnits="userSpaceOnUse">
      <stop offset="0" stop-color="#fff"/>
      <stop offset=".33" stop-color="#fff"/>
      <stop offset=".66" stop-color="#fff" stop-opacity="0"/>
      <stop offset="1" stop-color="#fff" stop-opacity="0"/>
    </radialGradient>
    <radialGradient id="Gradiente_sem_nome_13" data-name="Gradiente sem nome 13" cx="1252.42" cy="797.87" fx="1252.42" fy="797.87" r="40.69" gradientTransform="translate(1344.88 -707.34) rotate(-180) scale(1 -1)" gradientUnits="userSpaceOnUse">
      <stop offset="0" stop-color="#fff"/>
      <stop offset=".28" stop-color="#e8e108"/>
      <stop offset=".8" stop-color="#339238"/>
      <stop offset="1" stop-color="#192111"/>
    </radialGradient>
    <radialGradient id="Gradiente_sem_nome_14" data-name="Gradiente sem nome 14" cx="1256.93" cy="801.68" fx="1256.93" fy="801.68" r="30.86" gradientTransform="translate(1344.88 -707.34) rotate(-180) scale(1 -1)" gradientUnits="userSpaceOnUse">
      <stop offset="0" stop-color="#fff"/>
      <stop offset=".33" stop-color="#fff"/>
      <stop offset=".66" stop-color="#fff" stop-opacity="0"/>
      <stop offset="1" stop-color="#fff" stop-opacity="0"/>
    </radialGradient>
    <radialGradient id="Gradiente_sem_nome_15" data-name="Gradiente sem nome 15" cx="1231.12" cy="814.95" fx="1231.12" fy="814.95" r="31.77" gradientTransform="translate(1344.88 -707.34) rotate(-180) scale(1 -1)" gradientUnits="userSpaceOnUse">
      <stop offset="0" stop-color="#fff"/>
      <stop offset=".28" stop-color="#e8e108"/>
      <stop offset=".8" stop-color="#339238"/>
      <stop offset="1" stop-color="#192111"/>
    </radialGradient>
    <radialGradient id="Gradiente_sem_nome_16" data-name="Gradiente sem nome 16" cx="1233.61" cy="814.38" fx="1233.61" fy="814.38" r="23.54" gradientTransform="translate(1344.88 -707.34) rotate(-180) scale(1 -1)" gradientUnits="userSpaceOnUse">
      <stop offset="0" stop-color="#fff"/>
      <stop offset=".33" stop-color="#fff"/>
      <stop offset=".66" stop-color="#fff" stop-opacity="0"/>
      <stop offset="1" stop-color="#fff" stop-opacity="0"/>
    </radialGradient>
    <radialGradient id="Gradiente_sem_nome_17" data-name="Gradiente sem nome 17" cx="1254.06" cy="832.56" fx="1254.06" fy="832.56" r="61.99" gradientTransform="translate(1344.88 -707.34) rotate(-180) scale(1 -1)" gradientUnits="userSpaceOnUse">
      <stop offset="0" stop-color="#fff"/>
      <stop offset=".28" stop-color="#e8e108"/>
      <stop offset=".8" stop-color="#339238"/>
      <stop offset="1" stop-color="#192111"/>
    </radialGradient>
    <radialGradient id="Gradiente_sem_nome_18" data-name="Gradiente sem nome 18" cx="1258.65" cy="839.24" fx="1258.65" fy="839.24" r="48.6" gradientTransform="translate(1344.88 -707.34) rotate(-180) scale(1 -1)" gradientUnits="userSpaceOnUse">
      <stop offset="0" stop-color="#fff"/>
      <stop offset=".33" stop-color="#fff"/>
      <stop offset=".66" stop-color="#fff" stop-opacity="0"/>
      <stop offset="1" stop-color="#fff" stop-opacity="0"/>
    </radialGradient>
  </defs>
  <g>
    <g>
      <path class="st17" d="M58.9,125.33c-18.97-11-33.09-29.43-17.83-43.53-2.98,1.78-5.71,3.83-8.2,6.11-9.36,13.64,3.11,30.83,20.36,40.83,24.51,14.22,31.87,23.63,28.48,32.16-3.72,9.36-20.4,9.69-29.36,6.24-8.26-3.17-15.23-9.12-20.07-17.97,3.62,5.58,8.96,10.15,15.53,12.77,9.49,3.77,24.75,5.13,28.84-3.02,2.8-5.58-6.98-13.42-14.79-18.6-15.82-10.5-38.06-20.08-36.17-44.25-10.21,14.48-12.2,33.17-5.17,49.5,4.22,9.8,11.16,17.59,19.55,22.88-20.08-20.33-19.74-39.74-18.79-49.41,5.46,9.49,15.37,15.98,24.68,21.75,7.39,4.58,20.75,10.11,18.49,13.5-2.35,3.52-14.64,2.21-24.3-4.69-7.91-5.65-14.64-14.09-16.75-21.31,11.5,70.58,83.33,50.45,66.46,22.06-7.96-13.39-18.79-17.94-30.98-25.01h.02Z"/>
      <path class="st15" d="M25.7,96.06c-5.55,28.28,21.42,34.89,37.39,45.07-16.82-11.35-39.29-20.75-37.39-45.07Z"/>
      <path class="st10" d="M25.7,96.06c-5.55,28.28,21.41,34.89,37.39,45.07-15.51-10.38-41.32-16.49-37.39-45.07Z"/>
      <path class="st16" d="M63.55,151.36c1.07,1.08,1.49,2.07.92,2.92-2.35,3.52-14.64,2.21-24.3-4.69-7.91-5.65-14.64-14.09-16.75-21.31,1.67,7.22,7.7,17.76,15.61,23.41,9.66,6.9,24.11,9.01,27.25,4.37.71-1.05-.92-3.19-2.74-4.7h.01Z"/>
      <path class="st12" d="M39.31,151.34c-7.91-5.65-13.95-15.95-15.89-23.06,1.67,7.22,7.7,17.76,15.61,23.41,9.66,6.9,24.13,9.06,27.25,4.37-2.85,4.2-17.32,2.18-26.98-4.72h.01Z"/>
      <path class="st14" d="M22.59,121.11c-.46-.68-.89-1.37-1.3-2.08-.94,9.67-1.28,29.08,18.79,49.41-11.77-13.61-19.48-28.7-17.49-47.33Z"/>
      <path class="st11" d="M21.63,119.61c-.11-.19-.23-.38-.34-.58-.94,9.67-1.28,29.08,18.79,49.41-19.87-20.64-19.4-39.16-18.45-48.83Z"/>
      <path class="st13" d="M39.4,94.55c-1.84-4.51.6-11.09,4.47-14.31-.96.49-1.89,1.01-2.8,1.56-15.25,14.1-1.13,32.53,17.83,43.53,8.66,5.02,16.62,8.77,23.37,15.31-9.11-9.58-24.79-16.9-34.14-26.57-7.53-7.78-11.02-16.23-8.73-19.52Z"/>
      <path class="st9" d="M41.07,81.8c-15.25,14.1-1.13,32.53,17.83,43.53,8.65,5.02,16.62,8.76,23.36,15.31-6.77-6.87-14.49-10.69-23.14-15.71-18.97-11-31.69-29.44-18.05-43.12h0Z"/>
    </g>
    <g>
      <path class="st4" d="M75.24,124.67c18.97,11,33.09,29.43,17.83,43.53,2.98-1.78,5.71-3.83,8.2-6.11,9.36-13.64-3.11-30.83-20.36-40.83-24.51-14.22-31.87-23.63-28.48-32.16,3.72-9.36,20.4-9.69,29.36-6.24,8.26,3.17,15.23,9.12,20.07,17.97-3.62-5.58-8.96-10.15-15.53-12.77-9.49-3.77-24.75-5.13-28.84,3.02-2.8,5.58,6.98,13.42,14.79,18.6,15.82,10.5,38.06,20.08,36.17,44.25,10.21-14.48,12.2-33.17,5.17-49.5-4.22-9.8-11.16-17.59-19.55-22.88,20.08,20.33,19.74,39.74,18.79,49.41-5.46-9.49-15.37-15.98-24.68-21.75-7.39-4.58-20.75-10.11-18.49-13.5,2.35-3.52,14.64-2.21,24.3,4.69,7.91,5.65,14.64,14.09,16.75,21.31-11.5-70.58-83.33-50.45-66.46-22.06,7.96,13.39,18.79,17.94,30.98,25.01h-.02Z"/>
      <path class="st3" d="M108.44,153.94c5.55-28.28-21.42-34.89-37.39-45.07,16.82,11.35,39.29,20.75,37.39,45.07Z"/>
      <path class="st1" d="M108.44,153.94c5.55-28.28-21.41-34.89-37.39-45.07,15.51,10.38,41.32,16.49,37.39,45.07Z"/>
      <path class="st0" d="M70.6,98.64c-1.07-1.08-1.49-2.07-.92-2.92,2.35-3.52,14.64-2.21,24.3,4.69,7.91,5.65,14.64,14.09,16.75,21.31-1.67-7.22-7.7-17.76-15.61-23.41-9.66-6.9-24.11-9.01-27.25-4.37-.71,1.05.92,3.19,2.74,4.7h0Z"/>
      <path class="st8" d="M94.84,98.66c7.91,5.65,13.95,15.95,15.89,23.06-1.67-7.22-7.7-17.76-15.61-23.41-9.66-6.9-24.13-9.06-27.25-4.37,2.85-4.2,17.32-2.18,26.98,4.72h0Z"/>
      <path class="st6" d="M111.55,128.89c.46.68.89,1.37,1.3,2.08.94-9.67,1.28-29.08-18.79-49.41,11.77,13.6,19.48,28.7,17.49,47.33Z"/>
      <path class="st5" d="M112.51,130.39c.11.19.23.38.34.58.94-9.67,1.28-29.08-18.79-49.41,19.87,20.64,19.4,39.16,18.45,48.83Z"/>
      <path class="st2" d="M94.75,155.45c1.84,4.51-.6,11.09-4.47,14.31.96-.49,1.89-1.01,2.8-1.56,15.25-14.1,1.13-32.53-17.83-43.53-8.66-5.02-16.62-8.77-23.37-15.31,9.11,9.58,24.79,16.9,34.14,26.57,7.53,7.78,11.02,16.23,8.73,19.52Z"/>
      <path class="st7" d="M93.08,168.2c15.25-14.1,1.13-32.53-17.83-43.53-8.65-5.02-16.62-8.76-23.36-15.31,6.77,6.87,14.49,10.69,23.14,15.71,18.97,11,31.69,29.44,18.05,43.12h0Z"/>
    </g>
  </g>
  <g class="st19">
    <g class="st19">
      <path class="st18" d="M156.61,158.96l.33-37.17-.28-38.72c0-.55.33-.83.83-.83h12.52c.44,0,.78.22.94.66l18.17,46.91,6.54,16.89,6.31-16.89,17.78-46.91c.17-.44.44-.66.89-.66h11.74c.5,0,.83.28.83.83l-.28,38.72.33,37.17c0,.55-.33.83-.83.83h-8.81c-.5,0-.83-.28-.83-.83l.11-34.17.33-28.69-23.87,63.03c-.17.44-.5.67-.94.67h-6.92c-.44,0-.83-.22-1-.67l-24.81-63.92.44,29.58.11,34.17c0,.55-.33.83-.83.83h-7.98c-.5,0-.83-.28-.83-.83Z"/>
      <path class="st18" d="M238.81,131.43c0-17.78,10.14-29.97,26.75-29.97s26.25,11.3,26.53,30.24c0,.5-.28.78-.83.78h-42.21c.22,14.9,6.59,21.55,17.17,21.55,8.42,0,13.46-4.65,15.12-12.79.11-.5.39-.72.83-.72h8.2c.5,0,.89.22.83.66-1.72,11.47-10.41,19.89-25.09,19.89-17.84,0-27.31-12.19-27.31-29.63ZM281.19,125.67c-.33-9.42-5.48-17.23-15.56-17.23-9.47,0-14.96,6.43-16.28,17.23h31.85Z"/>
      <path class="st18" d="M296.2,131.38c0-16.45,8.7-29.8,23.76-29.8,8.09,0,14.12,3.54,17.83,10.08l-.05-28.58c0-.55.28-.83.78-.83h8.64c.5,0,.83.28.83.83l-.22,33.34.22,42.59c0,.55-.33.78-.83.78h-8.59c-.5,0-.83-.28-.78-.78l.22-8.86c-3.71,6.65-9.86,10.75-18.22,10.75-15.4,0-23.6-12.91-23.6-29.52ZM338.3,131.82c.11-14.73-5.65-23.26-15.68-23.32-10.97-.11-16.12,9.14-16.12,22.21,0,13.74,5.15,23.26,15.9,23.21,9.75,0,15.79-7.37,15.9-22.1Z"/>
      <path class="st18" d="M355.36,158.96l.22-28.64-.22-26.75c0-.55.28-.83.78-.83h8.75c.5,0,.78.28.78.83l-.17,26.75.17,28.64c0,.55-.28.83-.78.83h-8.75c-.5,0-.78-.28-.78-.83ZM355.42,95.59v-9.08c0-.5.33-.83.83-.83h8.7c.5,0,.78.33.78.83v9.08c0,.5-.28.78-.78.78h-8.7c-.55,0-.83-.28-.83-.78Z"/>
      <path class="st18" d="M377.91,144.17l.06-34.01h-6.54c-.5,0-.83-.33-.83-.83v-5.76c0-.55.33-.83.83-.83h6.54l-.11-13.46c0-.55.28-.83.83-.83h8.58c.55,0,.83.28.83.83l-.11,13.46h13.29c.5,0,.78.33.78.83v5.76c0,.55-.28.83-.78.83h-13.35l.06,33.79c0,7.04,2.33,9.2,7.14,9.2,2.22,0,4.38-.28,5.98-.67.55-.17.89.11.89.67v5.37c0,.5-.17.78-.55.89-2.38.67-5.37,1.33-8.14,1.33-8.31,0-15.4-4.15-15.4-16.56Z"/>
      <path class="st18" d="M401.61,131.43c0-17.78,10.14-29.97,26.75-29.97s26.25,11.3,26.53,30.24c0,.5-.28.78-.83.78h-42.21c.22,14.9,6.59,21.55,17.17,21.55,8.42,0,13.46-4.65,15.12-12.79.11-.5.39-.72.83-.72h8.2c.5,0,.89.22.83.66-1.72,11.47-10.41,19.89-25.09,19.89-17.84,0-27.31-12.19-27.31-29.63ZM443.99,125.67c-.33-9.42-5.48-17.23-15.56-17.23-9.47,0-14.96,6.43-16.28,17.23h31.85Z"/>
      <path class="st18" d="M459.95,158.96l.33-28.3-.33-27.09c0-.55.33-.83.83-.83h8.53c.5,0,.78.28.78.83l-.33,9.75c4.04-7.2,11.41-11.13,19.39-11.13,1.27,0,2.49.11,3.54.39.44.11.72.44.72.89v6.15c0,.5-.33.78-.89.72-.94-.22-2.05-.28-3.27-.28-9.75,0-18.22,5.93-19.22,18.61l.11,30.3c0,.55-.28.83-.78.83h-8.59c-.5,0-.83-.28-.83-.83Z"/>
      <path class="st18" d="M497.28,158.96l.33-28.3-.33-27.09c0-.55.33-.83.83-.83h8.53c.5,0,.78.28.78.83l-.33,9.75c4.04-7.2,11.41-11.13,19.39-11.13,1.27,0,2.49.11,3.54.39.44.11.72.44.72.89v6.15c0,.5-.33.78-.89.72-.94-.22-2.05-.28-3.27-.28-9.75,0-18.22,5.93-19.22,18.61l.11,30.3c0,.55-.28.83-.78.83h-8.59c-.5,0-.83-.28-.83-.83Z"/>
      <path class="st18" d="M528.41,131.38c0-16.45,8.7-29.74,23.76-29.74,8.25,0,14.4,3.66,18.06,10.41l-.22-8.47c-.05-.55.28-.83.78-.83h8.59c.5,0,.83.28.83.83l-.28,27.09.28,28.3c0,.55-.33.83-.83.83h-8.53c-.5,0-.78-.28-.78-.83l.17-8.86c-3.71,6.7-9.86,10.75-18.22,10.75-15.4,0-23.6-12.85-23.6-29.47ZM570.51,131.76c.11-14.68-5.65-23.04-15.68-23.1-10.97-.11-16.12,8.97-16.12,21.99,0,13.74,5.15,23.21,15.9,23.15,9.75,0,15.79-7.37,15.9-22.04Z"/>
    </g>
  </g>
</svg>